<svg width="25" height="24" viewBox="0 0 25 24" fill="none" xmlns="http://www.w3.org/2000/svg">
<path d="M10.9894 8.3244V9.97679H9.77979V11.9964H10.9894V18H13.4758V11.9964H15.1438C15.1438 11.9964 15.301 11.028 15.3766 9.96839H13.4854V8.5884C13.4854 8.3808 13.7566 8.1036 14.0254 8.1036H15.379V6H13.537C10.9282 6 10.9894 8.022 10.9894 8.3244Z" fill="#F7F7F7"/>
<path d="M5.35542 2.4C4.7189 2.4 4.10845 2.65285 3.65836 3.10294C3.20828 3.55302 2.95542 4.16347 2.95542 4.79999V19.2C2.95542 19.8365 3.20828 20.4469 3.65836 20.897C4.10845 21.3471 4.7189 21.6 5.35542 21.6H19.7554C20.3919 21.6 21.0024 21.3471 21.4525 20.897C21.9026 20.4469 22.1554 19.8365 22.1554 19.2V4.79999C22.1554 4.16347 21.9026 3.55302 21.4525 3.10294C21.0024 2.65285 20.3919 2.4 19.7554 2.4H5.35542ZM5.35542 0H19.7554C21.0285 0 22.2494 0.505712 23.1495 1.40588C24.0497 2.30606 24.5554 3.52695 24.5554 4.79999V19.2C24.5554 20.473 24.0497 21.6939 23.1495 22.5941C22.2494 23.4942 21.0285 24 19.7554 24H5.35542C4.08238 24 2.86148 23.4942 1.96131 22.5941C1.06113 21.6939 0.55542 20.473 0.55542 19.2V4.79999C0.55542 3.52695 1.06113 2.30606 1.96131 1.40588C2.86148 0.505712 4.08238 0 5.35542 0V0Z" fill="#F7F7F7"/>
</svg>
