<svg width="25" height="24" viewBox="0 0 25 24" fill="none" xmlns="http://www.w3.org/2000/svg">
<path d="M12.8857 5.84283C9.47845 5.84283 6.72865 8.59268 6.72865 12C6.72865 15.4073 9.47845 18.1571 12.8857 18.1571C16.2929 18.1571 19.0427 15.4073 19.0427 12C19.0427 8.59268 16.2929 5.84283 12.8857 5.84283ZM12.8857 16.0017C10.6822 16.0017 8.88406 14.2035 8.88406 12C8.88406 9.79649 10.6822 7.99828 12.8857 7.99828C15.0891 7.99828 16.8873 9.79649 16.8873 12C16.8873 14.2035 15.0891 16.0017 12.8857 16.0017ZM19.2949 4.15569C18.4994 4.15569 17.857 4.79812 17.857 5.59366C17.857 6.3892 18.4994 7.03163 19.2949 7.03163C20.0904 7.03163 20.7328 6.3922 20.7328 5.59366C20.7331 5.40476 20.6961 5.21766 20.6239 5.04309C20.5517 4.86852 20.4458 4.70991 20.3122 4.57633C20.1786 4.44276 20.02 4.33685 19.8455 4.26467C19.6709 4.19249 19.4838 4.15545 19.2949 4.15569V4.15569ZM24.8876 12C24.8876 10.3429 24.9026 8.70075 24.8095 7.04664C24.7165 5.12534 24.2782 3.4202 22.8733 2.01525C21.4653 0.607301 19.7632 0.172008 17.8419 0.0789455C16.1849 -0.0141172 14.5428 0.000892934 12.8887 0.000892934C11.2316 0.000892934 9.58953 -0.0141172 7.93544 0.0789455C6.01418 0.172008 4.30906 0.610303 2.90413 2.01525C1.49621 3.4232 1.06092 5.12534 0.96786 7.04664C0.874799 8.70376 0.889809 10.3459 0.889809 12C0.889809 13.6541 0.874799 15.2992 0.96786 16.9533C1.06092 18.8746 1.49921 20.5798 2.90413 21.9847C4.31206 23.3927 6.01418 23.8279 7.93544 23.921C9.59253 24.0141 11.2346 23.9991 12.8887 23.9991C14.5458 23.9991 16.1879 24.0141 17.8419 23.921C19.7632 23.8279 21.4683 23.3896 22.8733 21.9847C24.2812 20.5768 24.7165 18.8746 24.8095 16.9533C24.9056 15.2992 24.8876 13.6571 24.8876 12V12ZM22.2458 19.0787C22.0267 19.6251 21.7625 20.0334 21.3392 20.4537C20.916 20.877 20.5107 21.1411 19.9643 21.3603C18.3853 21.9877 14.6358 21.8466 12.8857 21.8466C11.1355 21.8466 7.38308 21.9877 5.80404 21.3633C5.25768 21.1441 4.84941 20.88 4.42913 20.4567C4.00586 20.0334 3.74168 19.6281 3.52254 19.0817C2.89813 17.4997 3.03922 13.7502 3.03922 12C3.03922 10.2498 2.89813 6.49727 3.52254 4.91821C3.74168 4.37184 4.00586 3.96356 4.42913 3.54328C4.85241 3.123 5.25768 2.85582 5.80404 2.63667C7.38308 2.01225 11.1355 2.15334 12.8857 2.15334C14.6358 2.15334 18.3883 2.01225 19.9673 2.63667C20.5137 2.85582 20.922 3.11999 21.3422 3.54328C21.7655 3.96656 22.0297 4.37184 22.2488 4.91821C22.8733 6.49727 22.7322 10.2498 22.7322 12C22.7322 13.7502 22.8733 17.4997 22.2458 19.0787Z" fill="#F7F7F7"/>
</svg>
