<svg width="56" height="56" viewBox="0 0 56 56" fill="none" xmlns="http://www.w3.org/2000/svg">
<circle cx="28" cy="28" r="28" fill="#FA3B41"/>
<path d="M21.3096 16.7964C21.3096 16.0624 20.715 16 19.9822 16C19.2482 16 18.6548 16.0624 18.6548 16.7964V27.9467H21.3096V16.7964ZM18.6548 39.0969C18.6548 39.8283 19.2482 39.8933 19.9822 39.8933C20.715 39.8933 21.3096 39.8283 21.3096 39.0969V34.5837H18.6548V39.0969ZM23.1667 29.2741H16.7951C16.0611 29.2741 16 29.8688 16 30.6015V31.9289C16 32.6629 16.0611 33.2563 16.7951 33.2563H23.168C23.8981 33.2563 23.9644 32.6629 23.9644 31.9289V30.6015C23.9644 29.8688 23.8981 29.2741 23.1667 29.2741ZM39.0956 30.6015H32.7227C31.9899 30.6015 31.9289 31.1962 31.9289 31.9289V33.2563C31.9289 33.9904 31.9899 34.5837 32.724 34.5837H39.0969C39.827 34.5837 39.8933 33.9904 39.8933 33.2563V31.9289C39.8933 31.1962 39.827 30.6015 39.0956 30.6015ZM31.9289 23.9644C31.9289 23.2317 31.8625 22.637 31.1311 22.637H24.7596C24.0255 22.637 23.9644 23.2317 23.9644 23.9644V25.2919C23.9644 26.0259 24.0255 26.6193 24.7596 26.6193H31.1324C31.8625 26.6193 31.9289 26.0259 31.9289 25.2919V23.9644ZM29.2741 16.7964C29.2741 16.0624 28.6794 16 27.9467 16C27.2126 16 26.6193 16.0624 26.6193 16.7964V21.3096H29.2741V16.7964V16.7964ZM26.6193 39.0969C26.6193 39.8283 27.2126 39.8933 27.9467 39.8933C28.6794 39.8933 29.2741 39.8283 29.2741 39.0969V27.9467H26.6193V39.0969ZM37.2385 16.7964C37.2385 16.0624 36.6438 16 35.9111 16C35.1771 16 34.5837 16.0624 34.5837 16.7964V29.2741H37.2385V16.7964V16.7964ZM34.5837 39.0969C34.5837 39.8283 35.1771 39.8933 35.9111 39.8933C36.6438 39.8933 37.2385 39.8283 37.2385 39.0969V35.9111H34.5837V39.0969Z" fill="white"/>
</svg>
