<svg width="24" height="24" viewBox="0 0 24 24" fill="none" xmlns="http://www.w3.org/2000/svg">
<path d="M12 0C5.37058 0 0 5.37134 0 12C0 18.6286 5.37135 24 12 24C18.6294 24 24 18.6286 24 12C24 5.37134 18.6286 0 12 0ZM17.8939 8.22115L15.9244 17.5022C15.7788 18.1602 15.3871 18.3197 14.8405 18.01L11.8405 15.7989L10.3935 17.1925C10.2341 17.352 10.0986 17.4874 9.7889 17.4874L10.0018 14.434L15.5613 9.41108C15.8036 9.19818 15.5079 9.0774 15.1881 9.2903L8.31716 13.6157L5.35587 12.6913C4.71252 12.4885 4.69781 12.048 5.49135 11.7383L17.0609 7.27663C17.5982 7.08308 18.0674 7.40747 17.8932 8.22037L17.8939 8.22115Z" fill="#FDFDFD"/>
</svg>
